HIERARCHY
ROOT Hips
{
	OFFSET 0.000000 0.000000 0.000000
	CHANNELS 6 Xposition Yposition Zposition Zrotation Yrotation Xrotation 
	JOINT LowerBack
	{
		OFFSET 0.000000 0.000000 0.000000
		CHANNELS 3 Zrotation Yrotation Xrotation
		JOINT Spine
		{
			OFFSET 0.028270 2.035590 -0.193380
			CHANNELS 3 Zrotation Yrotation Xrotation
			JOINT Spine1
			{
				OFFSET 0.056720 2.048850 -0.042750
				CHANNELS 3 Zrotation Yrotation Xrotation
				JOINT Neck
				{
					OFFSET 0.000000 0.000000 0.000000
					CHANNELS 3 Zrotation Yrotation Xrotation
					JOINT Neck1
					{
						OFFSET -0.054170 1.746240 0.172020
						CHANNELS 3 Zrotation Yrotation Xrotation
						JOINT Head
						{
							OFFSET 0.104070 1.761360 -0.123970
							CHANNELS 3 Zrotation Yrotation Xrotation
							End Site
							{
								OFFSET 0.000000 0.000000 0.000000
							}
						}
					}
				}
				JOINT LeftShoulder
				{
					OFFSET 0.000000 0.000000 0.000000
					CHANNELS 3 Zrotation Yrotation Xrotation
					JOINT LeftArm
					{
						OFFSET 3.362410 1.200890 -0.311210
						CHANNELS 3 Zrotation Yrotation Xrotation
						JOINT LeftForeArm
						{
							OFFSET 4.983000 -0.000000 -0.000000
							CHANNELS 3 Zrotation Yrotation Xrotation
							JOINT LeftHand
							{
								OFFSET 3.483560 -0.000000 -0.000000
								CHANNELS 3 Zrotation Yrotation Xrotation
								JOINT LeftFingerBase
								{
									OFFSET 0.000000 0.000000 0.000000
									CHANNELS 3 Zrotation Yrotation Xrotation
									JOINT LeftHandIndex1
									{
										OFFSET 0.715260 -0.000000 -0.000000
										CHANNELS 3 Zrotation Yrotation Xrotation
										End Site
										{
											OFFSET 0.000000 0.000000 0.000000
										}
									}
								}
								JOINT LThumb
								{
									OFFSET 0.000000 0.000000 0.000000
									CHANNELS 3 Zrotation Yrotation Xrotation
									End Site
									{
										OFFSET 0.000000 0.000000 0.000000
									}
								}
							}
						}
					}
				}
				JOINT RightShoulder
				{
					OFFSET 0.000000 0.000000 0.000000
					CHANNELS 3 Zrotation Yrotation Xrotation
					JOINT RightArm
					{
						OFFSET -3.136600 1.374050 -0.404650
						CHANNELS 3 Zrotation Yrotation Xrotation
						JOINT RightForeArm
						{
							OFFSET -5.241900 -0.000000 -0.000000
							CHANNELS 3 Zrotation Yrotation Xrotation
							JOINT RightHand
							{
								OFFSET -3.444170 -0.000000 -0.000000
								CHANNELS 3 Zrotation Yrotation Xrotation
								JOINT RightFingerBase
								{
									OFFSET 0.000000 0.000000 0.000000
									CHANNELS 3 Zrotation Yrotation Xrotation
									JOINT RightHandIndex1
									{
										OFFSET -0.622530 -0.000000 -0.000000
										CHANNELS 3 Zrotation Yrotation Xrotation
										End Site
										{
											OFFSET 0.000000 0.000000 0.000000
										}
									}
								}
								JOINT RThumb
								{
									OFFSET 0.000000 0.000000 0.000000
									CHANNELS 3 Zrotation Yrotation Xrotation
									End Site
									{
										OFFSET 0.000000 0.000000 0.000000
									}
								}
							}
						}
					}
				}
			}
		}
	}
}
}
MOTION
Frames: 6
Frame Time: 0.008333
17.442566 16.636496 1.797661 -156.542571 -84.302571 -151.796139 0.662227 -1.611493 1.428178 -0.879689 -1.674176 -2.432188 -6.179891 -1.800355 0.971044 6.718536 -9.772435 -9.327427 -2.866925 -0.174107 -1.051443 0.000000 0.000000 0.000000 -1.363371 4.680637 2.965411 -66.634436 17.924586 15.129594 -2.106401 -36.121539 0.001198 0.027365 -0.743866 -0.000185 -0.045646 0.052135 -0.000000 0.000000 0.000000 0.000000 0.000000 0.000000 0.000000 13.526816 -7.925050 3.026345 70.024822 -8.164971 -4.981523 2.196745 24.445456 0.008111 -1.578920 7.078736 -0.105796 0.097500 -0.172246 0.000000 0.000000 0.000000 0.000000 0.000000 0.000000 0.000000 
17.428226 16.563707 1.806912 -157.080712 -84.297302 -150.488609 0.577222 -1.628623 1.344869 -0.905648 -1.693137 -2.455594 -6.167815 -1.822722 0.932783 6.733133 -9.692559 -9.365193 -2.867688 -0.172793 -1.077901 0.000000 0.000000 0.000000 -1.444435 4.625263 3.010352 -66.428426 17.578375 15.133581 -2.094959 -36.251746 0.001276 -0.023395 -0.782526 0.000120 -0.044807 0.057274 -0.000000 0.000000 0.000000 0.000000 0.000000 0.000000 0.000000 13.616549 -7.833970 3.059966 70.056331 -7.904317 -4.787649 2.147987 24.494477 0.007725 -1.582870 7.069091 -0.105800 0.095325 -0.175186 0.000000 0.000000 0.000000 0.000000 0.000000 0.000000 0.000000 
17.414224 16.484199 1.815272 -157.996943 -84.333216 -148.827111 0.473838 -1.658994 1.279645 -0.936478 -1.724393 -2.474792 -6.156807 -1.857302 0.889789 6.756999 -9.608607 -9.401444 -2.871844 -0.171746 -1.104419 0.000000 0.000000 0.000000 -1.527758 4.537390 3.058638 -66.216979 17.222222 15.113035 -2.084444 -36.371409 0.001358 -0.073541 -0.816936 0.000526 -0.043954 0.062464 -0.000000 0.000000 0.000000 0.000000 0.000000 0.000000 0.000000 13.730832 -7.744263 3.093416 70.089410 -7.638142 -4.588938 2.097832 24.558210 0.007362 -1.575398 7.075076 -0.105305 0.092875 -0.178297 0.000000 0.000000 0.000000 0.000000 0.000000 0.000000 0.000000 
17.400763 16.397687 1.822647 -159.370447 -84.417446 -146.734250 0.352906 -1.705428 1.232054 -0.971441 -1.770743 -2.487601 -6.144805 -1.906668 0.849077 6.791012 -9.538184 -9.444319 -2.877700 -0.170715 -1.133339 0.000000 0.000000 0.000000 -1.604443 4.450342 3.110175 -65.997801 16.810443 15.108623 -2.075756 -36.454155 0.001436 -0.112978 -0.845761 0.000932 -0.043292 0.067739 -0.000000 0.000000 0.000000 0.000000 0.000000 0.000000 0.000000 13.867935 -7.675166 3.124440 70.118246 -7.345932 -4.359371 2.046494 24.624929 0.007001 -1.566467 7.090727 -0.104909 0.090284 -0.181439 0.000000 0.000000 0.000000 0.000000 0.000000 0.000000 0.000000 
17.387465 16.304023 1.829066 -161.260140 -84.552923 -144.151858 0.219646 -1.767646 1.199827 -1.009889 -1.832236 -2.496032 -6.133615 -1.971070 0.805489 6.833731 -9.469581 -9.487378 -2.886873 -0.169939 -1.162653 0.000000 0.000000 0.000000 -1.682168 4.332970 3.164953 -65.769414 16.382730 15.092257 -2.067966 -36.523448 0.001501 -0.142814 -0.862297 0.001138 -0.042729 0.073002 -0.000000 0.000000 0.000000 0.000000 0.000000 0.000000 0.000000 14.029777 -7.615202 3.154992 70.146330 -7.049022 -4.128887 1.993960 24.701174 0.006637 -1.550444 7.106473 -0.103913 0.087486 -0.184587 0.000000 0.000000 0.000000 0.000000 0.000000 0.000000 0.000000 
17.374444 16.203225 1.834732 -163.644268 -84.735951 -141.103422 0.085658 -1.842698 1.184477 -1.048898 -1.906145 -2.497628 -6.121809 -2.047576 0.765980 6.884545 -9.426614 -9.539376 -2.897332 -0.169133 -1.194920 0.000000 0.000000 0.000000 -1.756241 4.217648 3.221766 -65.532094 15.891725 15.100244 -2.061544 -36.551613 0.001544 -0.156283 -0.867223 0.001245 -0.042398 0.078277 -0.000000 0.000000 0.000000 0.000000 0.000000 0.000000 0.000000 14.212283 -7.587255 3.183713 70.166278 -6.720050 -3.871019 1.940939 24.773357 0.006250 -1.537352 7.113352 -0.103119 0.084653 -0.187602 0.000000 0.000000 0.000000 0.000000 0.000000 0.000000 0.000000 
